<svg xmlns="http://www.w3.org/2000/svg" width="405.4861145019531" height="535.70263671875" viewBox="-216.39219665527344 -319.2037048339844 405.4861145019531 535.70263671875"><title>Neo4j Graph Visualization</title><desc>Created using Neo4j (http://www.neo4j.com/)</desc><g class="layer relationships"><g class="relationship" transform="translate(-38.73273728657767 38.295306906199094) rotate(370.79478263055955)"><path class="b-outline" fill="#A5ABB6" stroke="none" d="M 17.324116139070416,-18.03122292025696 L 18.031222920256962,-17.324116139070412 A 78.7664681061416 78.7664681061416 0 0 1 29.75790570425933,-26.979391825528936 L 29.199678047222413,-27.809079648097807 A 79.7664681061416 79.7664681061416 0 0 0 17.324116139070416,-18.03122292025696 Z M 113.94389139278229,-30.51419307419799 L 113.43971506782523,-29.650592336963015 A 78.7664681061416 78.7664681061416 0 0 1 125.75830763700897,-20.76286401007398 L 123.77659705991397,-18.51057113643835 L 131.3439427716746,-16.514254809124935 L 128.40058840646896,-23.76592117492148 L 126.41887782937395,-21.513628301285852 A 79.7664681061416 79.7664681061416 0 0 0 113.94389139278229,-30.51419307419799"/><text text-anchor="middle" pointer-events="none" font-size="8px" fill="#000000" x="71.19855601405052" y="-37.853927256863145" font-family="Helvetica Neue, Helvetica, Arial, sans-serif">SUPPORT_COMPANY</text></g><g class="relationship" transform="translate(-38.73273728657767 38.295306906199094) rotate(370.79478263055955)"><path class="b-outline" fill="#A5ABB6" stroke="none" d="M 24.018736134675446,-6.953439040707552 L 24.277555179777966,-5.987513214418485 A 191.06001820251674 191.06001820251674 0 0 1 24.530301463842328,-6.055050947425713 L 24.27280528202875,-7.021330263333596 A 192.06001820251674 192.06001820251674 0 0 0 24.018736134675446,-6.953439040707552 Z M 118.88304375814207,-8.113977490016708 L 118.64793226782498,-7.142009081517301 A 191.06001820251674 191.06001820251674 0 0 1 118.9021709087328,-7.080326483019456 L 118.19284441511823,-4.1653897898035535 L 125.82191094183901,-5.911054113454769 L 119.84793956688557,-10.966908740640658 L 119.138613073271,-8.051972047424757 A 192.06001820251674 192.06001820251674 0 0 0 118.88304375814207,-8.113977490016708"/><text text-anchor="middle" pointer-events="none" font-size="8px" fill="#000000" x="71.51536051369558" y="-9.984951811463674" font-family="Helvetica Neue, Helvetica, Arial, sans-serif">SUPPORT_DEPARTM…</text></g><g class="relationship" transform="translate(-38.73273728657767 38.295306906199094) rotate(410.1876151389728)"><path class="b-outline" fill="#A5ABB6" stroke="none" d="M 6.953439040707552 24.018736134675446 L 17.306200844808384 62.65576918623819 A 17.916697508022974 17.916697508022974 0 1 1 -17.306200844808384 62.65576918623819 L -8.765172356425198 30.780216918698923 L -4.901469051268926 31.815493099109005 L -6.4704761275630185 24.148145657226706 L -11.662949835292403 30.00375978339136 L -7.79924653013613 31.039035963801442 L -16.340275018519314 62.91458823134071 A 16.916697508022974 16.916697508022974 0 1 0 16.340275018519314 62.91458823134071 L 5.987513214418485 24.277555179777966 Z"/><text text-anchor="middle" pointer-events="none" font-size="8px" fill="#000000" x="0" y="94.20964923467838" font-family="Helvetica Neue, Helvetica, Arial, sans-serif">APPLICAT…</text></g><g class="relationship" transform="translate(-132.86607786819107 154.2289124103628) rotate(309.07518464149763)"><path class="b-outline" fill="#A5ABB6" stroke="none" d="M 24.018736134675446,6.953439040707552 L 24.277555179777966,5.987513214418485 A 189.53508929576026 189.53508929576026 0 0 0 26.585086096676527,6.590279726984761 L 26.338441741366132,7.559385790320221 A 190.53508929576026 190.53508929576026 0 0 1 24.018736134675446,6.953439040707552 Z M 116.02898745766639,8.600362205877076 L 115.80490200647338,7.625792705757334 A 189.53508929576026 189.53508929576026 0 0 0 118.12580123575528,7.076745195397481 L 117.4168092164285,4.161727130868389 L 125.04567538954429,5.908266827723173 L 119.07112392819099,10.963435948102937 L 118.36213190886421,8.048417883573846 A 190.53508929576026 190.53508929576026 0 0 1 116.02898745766639,8.600362205877076"/><text text-anchor="middle" pointer-events="none" font-size="8px" fill="#000000" x="71.12738809501359" y="15.93296658659267" font-family="Helvetica Neue, Helvetica, Arial, sans-serif">APPLICATION_OWN…</text></g><g class="relationship" transform="translate(-38.73273728657767 38.295306906199094) rotate(370.79478263055955)"><path class="b-outline" fill="#A5ABB6" stroke="none" d="M 24.018736134675446,6.953439040707552 L 24.277555179777966,5.987513214418485 A 191.06001820251674 191.06001820251674 0 0 0 27.178054770873523,6.74037109402434 L 26.934416817128493,7.710237346398827 A 192.06001820251674 192.06001820251674 0 0 1 24.018736134675446,6.953439040707552 Z M 116.20623196803723,8.741231484208072 L 115.98505784904376,7.765997148734044 A 191.06001820251674 191.06001820251674 0 0 0 118.9021709087328,7.080326483019456 L 118.19284441511823,4.1653897898035535 L 125.82191094183901,5.911054113454769 L 119.84793956688557,10.966908740640658 L 119.138613073271,8.051972047424757 A 192.06001820251674 192.06001820251674 0 0 1 116.20623196803723,8.741231484208072"/><text text-anchor="middle" pointer-events="none" font-size="8px" fill="#000000" x="71.5153605136956" y="15.984951811463674" font-family="Helvetica Neue, Helvetica, Arial, sans-serif">SUPPORT_IT_OFFICE</text></g><g class="relationship" transform="translate(-38.73273728657767 38.295306906199094) rotate(421.300045636448)"><path class="b-outline" fill="#A5ABB6" stroke="none" d="M 6.953439040707552 24.018736134675446 L 17.306200844808384 62.65576918623819 A 17.916697508022974 17.916697508022974 0 1 1 -17.306200844808384 62.65576918623819 L -8.765172356425198 30.780216918698923 L -4.901469051268926 31.815493099109005 L -6.4704761275630185 24.148145657226706 L -11.662949835292403 30.00375978339136 L -7.79924653013613 31.039035963801442 L -16.340275018519314 62.91458823134071 A 16.916697508022974 16.916697508022974 0 1 0 16.340275018519314 62.91458823134071 L 5.987513214418485 24.277555179777966 Z"/><text text-anchor="middle" pointer-events="none" font-size="8px" fill="#000000" x="0" y="94.20964923467838" font-family="Helvetica Neue, Helvetica, Arial, sans-serif">INTERAC…</text></g><g class="relationship" transform="translate(-38.73273728657767 38.295306906199094) rotate(533.5249066313984)"><path class="b-outline" fill="#A5ABB6" stroke="none" d="M 25 0.5 L 27.258096167974685 0.5 L 27.258096167974685 -0.5 L 25 -0.5 Z M 115.35575241797468 0.5 L 117.61384858594937 0.5 L 117.61384858594937 3.5 L 124.61384858594937 0 L 117.61384858594937 -3.5 L 117.61384858594937 -0.5 L 115.35575241797468 -0.5 Z"/><text text-anchor="middle" pointer-events="none" font-size="8px" fill="#000000" x="71.30692429297468" y="3" transform="rotate(180 71.30692429297468 0)" font-family="Helvetica Neue, Helvetica, Arial, sans-serif">SUPPORT_PROCESS</text></g><g class="relationship" transform="translate(-132.86607786819107 154.2289124103628) rotate(309.07518464149763)"><path class="b-outline" fill="#A5ABB6" stroke="none" d="M 24.018736134675446,-6.953439040707552 L 24.277555179777966,-5.987513214418485 A 189.53508929576026 189.53508929576026 0 0 1 24.793927931162088,-6.125094958930447 L 24.53783330375606,-7.091746675844945 A 190.53508929576026 190.53508929576026 0 0 0 24.018736134675446,-6.953439040707552 Z M 117.83996452185083,-8.174640277880172 L 117.60637438009991,-7.202305126979638 A 189.53508929576026 189.53508929576026 0 0 1 118.12580123575528,-7.076745195397481 L 117.4168092164285,-4.161727130868389 L 125.04567538954429,-5.908266827723173 L 119.07112392819099,-10.963435948102937 L 118.36213190886421,-8.048417883573846 A 190.53508929576026 190.53508929576026 0 0 0 117.83996452185083,-8.174640277880172"/><text text-anchor="middle" pointer-events="none" font-size="8px" fill="#000000" x="71.12738809501354" y="-9.93296658659267" font-family="Helvetica Neue, Helvetica, Arial, sans-serif">BUSINESS_OWNER_…</text></g><g class="relationship" transform="translate(-38.73273728657767 38.295306906199094) rotate(370.79478263055955)"><path class="b-outline" fill="#A5ABB6" stroke="none" d="M 17.324116139070416,18.03122292025696 L 18.031222920256962,17.324116139070412 A 78.7664681061416 78.7664681061416 0 0 0 20.128585332868973,19.345313983754956 L 19.448106156842854,20.078081403196357 A 79.7664681061416 79.7664681061416 0 0 1 17.324116139070416,18.03122292025696 Z M 124.16866966007095,23.420858344982676 L 123.53630941886374,22.646183880875107 A 78.7664681061416 78.7664681061416 0 0 0 125.75830763700897,20.76286401007398 L 123.77659705991397,18.51057113643835 L 131.3439427716746,16.514254809124935 L 128.40058840646896,23.76592117492148 L 126.41887782937395,21.513628301285852 A 79.7664681061416 79.7664681061416 0 0 1 124.16866966007095,23.420858344982676"/><text text-anchor="middle" pointer-events="none" font-size="8px" fill="#000000" x="71.19855601405054" y="43.853927256863145" font-family="Helvetica Neue, Helvetica, Arial, sans-serif">IS_PROVIDED_BY_VENDOR</text></g><g class="relationship" transform="translate(-38.73273728657767 38.295306906199094) rotate(331.9106850522074)"><path class="b-outline" fill="#A5ABB6" stroke="none" d="M 25 0.5 L 32.57865396262619 0.5 L 32.57865396262619 -0.5 L 25 -0.5 Z M 110.01224771262619 0.5 L 117.59090167525238 0.5 L 117.59090167525238 3.5 L 124.59090167525238 0 L 117.59090167525238 -3.5 L 117.59090167525238 -0.5 L 110.01224771262619 -0.5 Z"/><text text-anchor="middle" pointer-events="none" font-size="8px" fill="#000000" x="71.29545083762619" y="3" font-family="Helvetica Neue, Helvetica, Arial, sans-serif">IS_INSTALLED_ON</text></g><g class="relationship" transform="translate(-38.73273728657767 38.295306906199094) rotate(291.27246663898023)"><path class="b-outline" fill="#A5ABB6" stroke="none" d="M 25 0.5 L 25.835802182963917 0.5 L 25.835802182963917 -0.5 L 25 -0.5 Z M 116.60533343296392 0.5 L 117.44113561592783 0.5 L 117.44113561592783 3.5 L 124.44113561592783 0 L 117.44113561592783 -3.5 L 117.44113561592783 -0.5 L 116.60533343296392 -0.5 Z"/><text text-anchor="middle" pointer-events="none" font-size="8px" fill="#000000" x="71.22056780796392" y="3" font-family="Helvetica Neue, Helvetica, Arial, sans-serif">IS_SUPPORTED_BY…</text></g><g class="relationship" transform="translate(-38.73273728657767 38.295306906199094) rotate(448.6634497153782)"><path class="b-outline" fill="#A5ABB6" stroke="none" d="M 25 0.5 L 31.66704185651423 0.5 L 31.66704185651423 -0.5 L 25 -0.5 Z M 110.57719810651423 0.5 L 117.24423996302846 0.5 L 117.24423996302846 3.5 L 124.24423996302846 0 L 117.24423996302846 -3.5 L 117.24423996302846 -0.5 L 110.57719810651423 -0.5 Z"/><text text-anchor="middle" pointer-events="none" font-size="8px" fill="#000000" x="71.12211998151423" y="3" font-family="Helvetica Neue, Helvetica, Arial, sans-serif">DATA_ACCESS_TO</text></g><g class="relationship" transform="translate(-38.73273728657767 38.295306906199094) rotate(251.48961098637847)"><path class="b-outline" fill="#A5ABB6" stroke="none" d="M 25 0.5 L 25.743630381753093 0.5 L 25.743630381753093 -0.5 L 25 -0.5 Z M 116.94284913175309 0.5 L 117.68647951350619 0.5 L 117.68647951350619 3.5 L 124.68647951350619 0 L 117.68647951350619 -3.5 L 117.68647951350619 -0.5 L 116.94284913175309 -0.5 Z"/><text text-anchor="middle" pointer-events="none" font-size="8px" fill="#000000" x="71.34323975675309" y="3" transform="rotate(180 71.34323975675309 0)" font-family="Helvetica Neue, Helvetica, Arial, sans-serif">OWNED_BY_PORTF…</text></g><g class="relationship" transform="translate(-38.73273728657767 38.295306906199094) rotate(212.55845436797756)"><path class="b-outline" fill="#A5ABB6" stroke="none" d="M 25 0.5 L 60.11794094580493 0.5 L 60.11794094580493 -0.5 L 25 -0.5 Z M 82.56715969580493 0.5 L 117.68510064160986 0.5 L 117.68510064160986 3.5 L 124.68510064160986 0 L 117.68510064160986 -3.5 L 117.68510064160986 -0.5 L 82.56715969580493 -0.5 Z"/><text text-anchor="middle" pointer-events="none" font-size="8px" fill="#000000" x="71.34255032080493" y="3" transform="rotate(180 71.34255032080493 0)" font-family="Helvetica Neue, Helvetica, Arial, sans-serif">HAS</text></g><g class="relationship" transform="translate(-38.73273728657767 38.295306906199094) rotate(409.6682397085508)"><path class="b-outline" fill="#A5ABB6" stroke="none" d="M 25 0.5 L 60.09592064987308 0.5 L 60.09592064987308 -0.5 L 25 -0.5 Z M 82.54513939987308 0.5 L 117.64106004974616 0.5 L 117.64106004974616 3.5 L 124.64106004974616 0 L 117.64106004974616 -3.5 L 117.64106004974616 -0.5 L 82.54513939987308 -0.5 Z"/><text text-anchor="middle" pointer-events="none" font-size="8px" fill="#000000" x="71.32053002487308" y="3" font-family="Helvetica Neue, Helvetica, Arial, sans-serif">HAS</text></g><g class="relationship" transform="translate(-38.73273728657767 38.295306906199094) rotate(432.4124761339232)"><path class="b-outline" fill="#A5ABB6" stroke="none" d="M 6.953439040707552 24.018736134675446 L 17.306200844808384 62.65576918623819 A 17.916697508022974 17.916697508022974 0 1 1 -17.306200844808384 62.65576918623819 L -8.765172356425198 30.780216918698923 L -4.901469051268926 31.815493099109005 L -6.4704761275630185 24.148145657226706 L -11.662949835292403 30.00375978339136 L -7.79924653013613 31.039035963801442 L -16.340275018519314 62.91458823134071 A 16.916697508022974 16.916697508022974 0 1 0 16.340275018519314 62.91458823134071 L 5.987513214418485 24.277555179777966 Z"/><text text-anchor="middle" pointer-events="none" font-size="8px" fill="#000000" x="0" y="94.20964923467838" font-family="Helvetica Neue, Helvetica, Arial, sans-serif">INTERAC…</text></g></g><g class="layer nodes"><g class="node" aria-label="graph-node-110" transform="translate(-35.25160232652759,187.4989424568516)"><circle class="b-outline" cx="0" cy="0" r="25" fill="#569480" stroke="#447666" stroke-width="2px"/><text class="caption" text-anchor="middle" pointer-events="none" x="0" y="5" font-size="10px" fill="#FFFFFF" font-family="Helvetica Neue, Helvetica, Arial, sans-serif"> Datasou…</text></g><g class="node" aria-label="graph-node-105" transform="translate(58.1168188647081,152.3681359502387)"><circle class="b-outline" cx="0" cy="0" r="25" fill="#C990C0" stroke="#b261a5" stroke-width="2px"/><text class="caption" text-anchor="middle" pointer-events="none" x="0" y="5" font-size="10px" fill="#FFFFFF" font-family="Helvetica Neue, Helvetica, Arial, sans-serif"> Data_su…</text></g><g class="node" aria-label="graph-node-102" transform="translate(108.72395871420355,66.41026023070046)"><circle class="b-outline" cx="0" cy="0" r="25" fill="#F79767" stroke="#f36924" stroke-width="2px"/><text class="caption" text-anchor="middle" pointer-events="none" x="0" y="5" font-size="10px" fill="#FFFFFF" font-family="Helvetica Neue, Helvetica, Arial, sans-serif"> Organiz…</text></g><g class="node" aria-label="graph-node-106" transform="translate(93.23855356794584,-32.139175090943354)"><circle class="b-outline" cx="0" cy="0" r="25" fill="#57C7E3" stroke="#23b3d7" stroke-width="2px"/><text class="caption" text-anchor="middle" pointer-events="none" x="0" y="5" font-size="10px" fill="#2A2C34" font-family="Helvetica Neue, Helvetica, Arial, sans-serif"> Server</text></g><g class="node" aria-label="graph-node-107" transform="translate(15.485024733858149,-100.9637584923362)"><circle class="b-outline" cx="0" cy="0" r="25" fill="#F16667" stroke="#eb2728" stroke-width="2px"/><text class="caption" text-anchor="middle" pointer-events="none" x="0" y="5" font-size="10px" fill="#FFFFFF" font-family="Helvetica Neue, Helvetica, Arial, sans-serif"> Technol…</text></g><g class="node" aria-label="graph-node-109" transform="translate(160.09391482778057,-290.20369697757826)"><circle class="b-outline" cx="0" cy="0" r="25" fill="#D9C8AE" stroke="#c0a378" stroke-width="2px"/><text class="caption" text-anchor="middle" pointer-events="none" x="0" y="5" font-size="10px" fill="#2A2C34" font-family="Helvetica Neue, Helvetica, Arial, sans-serif"> Glossary</text></g><g class="node" aria-label="graph-node-103" transform="translate(-86.25469240707156,-103.64730801501852)"><circle class="b-outline" cx="0" cy="0" r="25" fill="#8DCC93" stroke="#5db665" stroke-width="2px"/><text class="caption" text-anchor="middle" pointer-events="none" x="0" y="5" font-size="10px" fill="#2A2C34" font-family="Helvetica Neue, Helvetica, Arial, sans-serif"> Portfolio</text></g><g class="node" aria-label="graph-node-104" transform="translate(-164.89375299772212,-42.2591930849326)"><circle class="b-outline" cx="0" cy="0" r="25" fill="#ECB5C9" stroke="#da7298" stroke-width="2px"/><text class="caption" text-anchor="middle" pointer-events="none" x="0" y="5" font-size="10px" fill="#2A2C34" font-family="Helvetica Neue, Helvetica, Arial, sans-serif"> Data_ca…</text></g><g class="node" aria-label="graph-node-108" transform="translate(-187.39219487505952,55.16745431539849)"><circle class="b-outline" cx="0" cy="0" r="25" fill="#4C8EDA" stroke="#2870c2" stroke-width="2px"/><text class="caption" text-anchor="middle" pointer-events="none" x="0" y="5" font-size="10px" fill="#FFFFFF" font-family="Helvetica Neue, Helvetica, Arial, sans-serif"> Process</text></g><g class="node" aria-label="graph-node-100" transform="translate(-38.73273728657767,38.295306906199094)"><circle class="b-outline" cx="0" cy="0" r="25" fill="#FFC454" stroke="#d7a013" stroke-width="2px"/><text class="caption" text-anchor="middle" pointer-events="none" x="0" y="5" font-size="10px" fill="#2A2C34" font-family="Helvetica Neue, Helvetica, Arial, sans-serif"> Applicati…</text></g><g class="node" aria-label="graph-node-101" transform="translate(-132.86607786819107,154.2289124103628)"><circle class="b-outline" cx="0" cy="0" r="25" fill="#DA7194" stroke="#cc3c6c" stroke-width="2px"/><text class="caption" text-anchor="middle" pointer-events="none" x="0" y="5" font-size="10px" fill="#FFFFFF" font-family="Helvetica Neue, Helvetica, Arial, sans-serif"> Person</text></g></g></svg>